<svg xmlns="http://www.w3.org/2000/svg" viewBox="0 0 512 512">
  <defs>
    <linearGradient id="bg2" x1="0%" y1="0%" x2="100%" y2="100%">
      <stop offset="0%" style="stop-color:#6366F1"/>
      <stop offset="50%" style="stop-color:#8B5CF6"/>
      <stop offset="100%" style="stop-color:#A855F7"/>
    </linearGradient>
    <filter id="shadow" x="-20%" y="-20%" width="140%" height="140%">
      <feDropShadow dx="0" dy="4" stdDeviation="8" flood-opacity="0.3"/>
    </filter>
  </defs>
  
  <!-- Background with rounded corners -->
  <rect x="24" y="24" width="464" height="464" rx="104" fill="url(#bg2)"/>
  
  <!-- Decorative elements -->
  <circle cx="420" cy="100" r="60" fill="white" opacity="0.1"/>
  <circle cx="100" cy="420" r="40" fill="white" opacity="0.1"/>
  
  <!-- Main Icon Container -->
  <g filter="url(#shadow)">
    <!-- Terminal/Code Window -->
    <rect x="96" y="120" width="320" height="272" rx="20" fill="white" opacity="0.95"/>
    
    <!-- Window Header -->
    <rect x="96" y="120" width="320" height="48" rx="20" fill="#1F2937"/>
    <rect x="96" y="148" width="320" height="20" fill="#1F2937"/>
    
    <!-- Window Buttons -->
    <circle cx="128" cy="144" r="8" fill="#EF4444"/>
    <circle cx="156" cy="144" r="8" fill="#F59E0B"/>
    <circle cx="184" cy="144" r="8" fill="#10B981"/>
    
    <!-- Code Lines -->
    <g fill="#E5E7EB">
      <rect x="120" y="190" width="80" height="12" rx="6"/>
      <rect x="120" y="220" width="200" height="12" rx="6"/>
      <rect x="140" y="250" width="160" height="12" rx="6"/>
      <rect x="140" y="280" width="120" height="12" rx="6"/>
      <rect x="120" y="310" width="180" height="12" rx="6"/>
      <rect x="120" y="340" width="100" height="12" rx="6"/>
    </g>
    
    <!-- H Badge -->
    <g transform="translate(330, 300)">
      <circle cx="40" cy="40" r="44" fill="url(#bg2)"/>
      <circle cx="40" cy="40" r="38" fill="white"/>
      <g fill="url(#bg2)" transform="translate(18, 18)">
        <rect x="0" y="0" width="8" height="44" rx="3"/>
        <rect x="36" y="0" width="8" height="44" rx="3"/>
        <rect x="0" y="18" width="44" height="8" rx="3"/>
      </g>
    </g>
  </g>
</svg>
